<svg xmlns="http://www.w3.org/2000/svg" viewBox="0 0 400 200">
  <!-- Standing horse — side view, anatomically correct proportions -->
  <!-- Reference: rigged 3D model with clear head, neck, withers, back, croup, barrel, 4 legs -->
  <path
    fill="rgba(255,255,255,0.25)"
    stroke="rgba(255,255,255,0.7)"
    stroke-width="2"
    stroke-linejoin="round"
    stroke-linecap="round"
    d="M12,108
       Q12,92 25,75 Q42,58 68,48 L98,42 Q128,45 148,65
       L158,85 Q162,102 152,115 L135,125 Q115,132 92,132
       L58,138 Q28,152 18,175 L22,192 L32,198
       L28,200 L22,195 L18,185 L15,175
       Z
       M32,198 L75,195 L82,200 L78,202 L72,198 L65,195
       Z
       M75,195 L158,182 Q205,168 238,142 Q268,112 265,78
       L255,48 Q238,22 205,12 L165,8 Q125,18 88,42
       L55,72 L48,55 L62,38 L85,48 L108,65 L148,88 L188,112
       L218,142 L222,172 L205,195 L168,208 L128,205
       Z
       M188,195 L295,175 Q338,152 358,115 L365,78
       Q365,42 335,18 L288,8 Q238,15 192,48
       L152,88 L145,68 L162,48 L192,68 L222,95 L262,125
       L292,158 L288,192 L258,208 L218,208
       Z
       M258,195 L355,172 Q388,148 395,108 L395,68
       Q388,32 355,12 L305,5 Q255,15 212,55
       L168,102 L162,78 L182,55 L212,82 L248,115 L288,148
       L318,182 L305,208 L268,208 Z"
  />
</svg>
